<svg width="227" height="49" viewBox="0 0 227 49" fill="none" xmlns="http://www.w3.org/2000/svg">
<path d="M41.96 10.92C43.08 10.5467 44.0933 10.36 45 10.36C46.3867 10.36 47.4667 10.8533 48.24 11.84C49.0133 12.8 49.6133 14.1733 50.04 15.96C50.1733 16.4933 50.44 17.6667 50.84 19.48C51.2667 21.2933 51.6133 22.76 51.88 23.88C52.7067 27.3733 53.4533 30.08 54.12 32C54.8133 33.92 55.9067 35.4533 57.4 36.6C57.08 37.4 56.5467 38.04 55.8 38.52C55.08 39 54.2933 39.24 53.44 39.24C51.4933 39.24 50.0667 37.7733 49.16 34.84C48.7333 33.48 48.3467 32.1467 48 30.84C47.0667 31.16 45.9067 31.32 44.52 31.32C43.16 31.32 41.48 31.1733 39.48 30.88C38.6533 34.1067 38.24 36.5333 38.24 38.16C38.24 38.5067 38.2533 38.76 38.28 38.92C37.9333 38.9733 37.3467 39 36.52 39C35.6933 39 34.96 38.7467 34.32 38.24C33.7067 37.7067 33.4 36.96 33.4 36C33.4 34.6667 34.68 30.76 37.24 24.28C39.8 17.8 41.3733 13.3467 41.96 10.92ZM40.4 27.52C41.4667 27.6533 42.5467 27.72 43.64 27.72C44.76 27.72 45.9467 27.6 47.2 27.36C46.96 26.2667 46.1467 22.08 44.76 14.8C43.1067 19.0933 41.6533 23.3333 40.4 27.52ZM60.1294 9.48C60.9827 9.16 61.8627 9 62.7694 9C63.676 9 64.4227 9.30666 65.0094 9.92C65.6227 10.5067 65.9294 11.32 65.9294 12.36C65.9294 13.3733 65.7827 15.4267 65.4894 18.52C65.2227 21.5867 65.0894 24 65.0894 25.76C65.0894 30.1067 65.396 34.36 66.0094 38.52C65.156 38.84 64.2494 39 63.2894 39C61.236 39 60.2094 38 60.2094 36C60.2094 35.04 60.356 33.16 60.6494 30.36C60.9427 27.5333 61.0894 25.2667 61.0894 23.56C61.0894 17.88 60.7694 13.1867 60.1294 9.48ZM72.5116 32.48C72.5116 32 72.3916 28.88 72.1516 23.12C70.8449 23.2 69.8049 23.4267 69.0316 23.8C68.7116 23.2133 68.5516 22.6 68.5516 21.96C68.5516 21.32 68.7782 20.8 69.2316 20.4C69.6849 19.9733 70.2182 19.76 70.8316 19.76C71.4449 19.76 71.8849 19.7733 72.1516 19.8C72.2849 16.7867 73.3116 14.24 75.2316 12.16C77.1516 10.0533 79.5649 9 82.4716 9C84.0982 9 85.4716 9.34666 86.5916 10.04C87.7116 10.7333 88.2716 11.76 88.2716 13.12C88.2716 14.08 87.9116 14.8933 87.1916 15.56C86.4716 16.2267 85.6182 16.56 84.6316 16.56C84.4182 16.56 84.1516 16.5333 83.8316 16.48C83.9116 16.1333 83.9516 15.8267 83.9516 15.56C83.9516 14.6267 83.7516 13.88 83.3516 13.32C82.9516 12.7333 82.2449 12.44 81.2316 12.44C80.2182 12.44 79.2849 12.7333 78.4316 13.32C77.8982 14.04 77.4716 15.04 77.1516 16.32C76.8316 17.6 76.6716 18.8533 76.6716 20.08H77.5916C79.3516 20.08 81.4449 19.8 83.8716 19.24C84.1916 19.7733 84.3516 20.4133 84.3516 21.16C84.3516 21.88 84.0449 22.48 83.4316 22.96C82.8182 23.44 82.0449 23.68 81.1116 23.68C81.0849 23.68 79.5782 23.4933 76.5916 23.12L76.9916 43.92C76.9916 45.6533 75.9649 46.52 73.9116 46.52C73.2182 46.52 72.3116 46.36 71.1916 46.04C72.0716 42.5467 72.5116 38.0267 72.5116 32.48Z" fill="#D82A30"/>
<path d="M104.219 20.16C103.499 23.2267 103.139 26.3067 103.139 29.4C103.139 32.4667 103.486 35.5067 104.179 38.52C103.219 38.84 102.233 39 101.219 39C100.206 39 99.4994 38.7067 99.0994 38.12C98.6994 37.5067 98.4994 36.64 98.4994 35.52C98.4994 34.3733 98.6727 32.8133 99.0194 30.84C97.126 34.8933 95.2994 37.4533 93.5394 38.52C92.7394 39 91.9127 39.24 91.0594 39.24C89.0327 39.24 87.4594 38.4933 86.3394 37C85.2194 35.48 84.6594 33.6 84.6594 31.36C84.6594 27.9467 85.606 24.96 87.4994 22.4C89.3927 19.8133 91.846 18.52 94.8594 18.52C97.8994 18.52 101.019 19.0667 104.219 20.16ZM98.9794 22.56C97.566 22.1333 96.366 21.92 95.3794 21.92C93.3794 21.92 91.886 22.36 90.8994 23.24C89.9927 25.48 89.5394 27.76 89.5394 30.08C89.5394 31.3067 89.726 32.5467 90.0994 33.8C90.4994 35.0533 91.0994 35.68 91.8994 35.68C92.8327 35.68 94.0327 34.3067 95.4994 31.56C96.966 28.8133 98.126 25.8133 98.9794 22.56ZM107.736 37.6C108.35 32.2933 108.656 28.64 108.656 26.64C108.656 21.04 108.43 15.32 107.976 9.48C108.776 9.16 109.63 9 110.536 9C111.443 9 112.216 9.30666 112.856 9.92C113.496 10.5333 113.816 11.3067 113.816 12.24C113.816 13.84 113.656 16.4 113.336 19.92C113.016 23.4133 112.816 25.7467 112.736 26.92C114.923 22.8133 117.096 20.2533 119.256 19.24C120.216 18.76 121.243 18.52 122.336 18.52C123.83 18.52 124.976 19.3067 125.776 20.88C126.603 22.4533 127.016 24.3733 127.016 26.64C127.016 30.2667 126.03 33.28 124.056 35.68C122.083 38.0533 119.523 39.24 116.376 39.24C113.256 39.24 110.376 38.6933 107.736 37.6ZM112.536 35.08C113.603 35.48 114.87 35.68 116.336 35.68C117.803 35.68 119.07 35.4 120.136 34.84C121.443 32.6 122.096 30.16 122.096 27.52C122.096 26.2667 121.95 25.0533 121.656 23.88C121.363 22.68 120.896 22.08 120.256 22.08C119.27 22.08 117.976 23.44 116.376 26.16C114.776 28.88 113.496 31.8533 112.536 35.08ZM133.914 29.92C133.914 31.84 134.221 33.36 134.834 34.48C135.448 35.5733 136.474 36.12 137.914 36.12C139.354 36.12 140.474 35.64 141.274 34.68C142.101 33.6933 142.514 32.5067 142.514 31.12C143.421 31.12 144.208 31.3467 144.874 31.8C145.541 32.2533 145.874 32.88 145.874 33.68C145.874 35.3333 144.994 36.72 143.234 37.84C141.474 38.9333 139.621 39.48 137.674 39.48C134.634 39.48 132.434 38.6667 131.074 37.04C129.714 35.3867 129.034 32.9467 129.034 29.72C129.034 26.4933 129.941 23.7867 131.754 21.6C133.594 19.3867 136.034 18.28 139.074 18.28C141.154 18.28 142.821 18.76 144.074 19.72C145.354 20.6533 145.994 22.12 145.994 24.12C145.994 26.0933 145.088 27.5867 143.274 28.6C141.488 29.5867 139.301 30.08 136.714 30.08C135.808 30.08 134.874 30.0267 133.914 29.92ZM133.954 26.76C134.754 26.92 135.594 27 136.474 27C138.394 27 140.008 26.64 141.314 25.92C141.474 25.28 141.554 24.7733 141.554 24.4C141.554 23.4667 141.221 22.76 140.554 22.28C139.888 21.8 138.968 21.56 137.794 21.56C136.648 21.56 135.608 21.9333 134.674 22.68C134.194 24.0667 133.954 25.4267 133.954 26.76Z" fill="#F3770E"/>
<path d="M151.328 12.88C152.181 12.4533 153.048 12.24 153.928 12.24C154.808 12.24 155.514 12.52 156.048 13.08C156.608 13.64 156.888 14.4667 156.888 15.56C156.888 16.6533 156.821 17.8933 156.688 19.28C158.688 19.28 160.594 19 162.408 18.44C162.728 18.9733 162.888 19.6 162.888 20.32C162.888 21.0133 162.568 21.5867 161.928 22.04C161.314 22.4667 160.688 22.68 160.048 22.68C159.408 22.68 158.688 22.6 157.888 22.44C157.088 22.28 156.568 22.1867 156.328 22.16C156.301 22.4 156.221 22.88 156.088 23.6C155.981 24.32 155.888 24.9467 155.808 25.48C155.594 26.9467 155.488 28.52 155.488 30.2C155.488 33.8533 156.674 35.68 159.048 35.68C159.928 35.68 160.941 35.3733 162.088 34.76C162.434 35.2667 162.608 35.92 162.608 36.72C162.608 37.52 162.168 38.1467 161.288 38.6C160.434 39.0267 159.408 39.24 158.208 39.24C153.514 39.24 151.168 36.5733 151.168 31.24C151.168 30.4667 151.274 29.0667 151.488 27.04C151.728 25.0133 151.848 23.3733 151.848 22.12C150.568 22.2 149.541 22.4267 148.768 22.8C148.448 22.32 148.288 21.7733 148.288 21.16C148.288 20.52 148.514 20 148.968 19.6C149.421 19.1733 149.981 18.96 150.648 18.96C151.314 18.96 151.754 18.9733 151.968 19C151.994 18.7867 152.008 18.5067 152.008 18.16C152.008 16.16 151.781 14.4 151.328 12.88ZM165.709 19.12C166.562 18.88 167.415 18.76 168.269 18.76C169.149 18.76 169.895 19.0267 170.509 19.56C171.122 20.0933 171.429 20.7867 171.429 21.64C171.429 22.4667 171.282 23.92 170.989 26C170.722 28.0533 170.589 29.6533 170.589 30.8C170.589 33.7867 170.869 36.36 171.429 38.52C170.602 38.84 169.709 39 168.749 39C167.789 39 167.029 38.7867 166.469 38.36C165.909 37.9067 165.629 37.2667 165.629 36.44C165.629 35.5867 165.789 34.2 166.109 32.28C166.429 30.36 166.589 28.7733 166.589 27.52C166.589 24.1867 166.295 21.3867 165.709 19.12ZM166.229 10.08C167.162 9.65333 168.082 9.44 168.989 9.44C169.895 9.44 170.562 9.68 170.989 10.16C171.442 10.6133 171.669 11.2933 171.669 12.2C171.669 13.1067 171.362 13.9067 170.749 14.6C170.162 15.2933 169.389 15.64 168.429 15.64C166.455 15.64 165.469 14.6133 165.469 12.56C165.469 11.6533 165.722 10.8267 166.229 10.08ZM181.864 19L187.824 18.88C188.757 18.88 189.437 19.0667 189.864 19.44C190.291 19.8133 190.504 20.4 190.504 21.2C190.504 21.9733 190.051 22.9067 189.144 24C188.264 25.0933 187.237 26.16 186.064 27.2C184.917 28.2133 183.717 29.44 182.464 30.88C181.237 32.32 180.357 33.64 179.824 34.84C180.784 35 181.944 35.08 183.304 35.08C186.344 35.08 188.571 34.6667 189.984 33.84C190.331 34.5333 190.504 35.32 190.504 36.2C190.504 37.08 190.197 37.8133 189.584 38.4C188.971 38.96 188.211 39.24 187.304 39.24C186.424 39.24 185.077 39.1467 183.264 38.96C181.477 38.7467 180.091 38.64 179.104 38.64C178.117 38.64 176.664 38.76 174.744 39C174.424 38.4667 174.264 37.84 174.264 37.12C174.264 35.92 175.064 34.3467 176.664 32.4C178.264 30.4267 180.051 28.44 182.024 26.44C183.997 24.4133 185.211 22.96 185.664 22.08C185.264 22.16 184.624 22.3067 183.744 22.52C182.864 22.7067 182.171 22.8533 181.664 22.96C180.331 23.2533 179.104 23.4 177.984 23.4C176.864 23.4 175.997 23.16 175.384 22.68C174.797 22.1733 174.504 21.4667 174.504 20.56C174.504 19.6267 174.677 18.9067 175.024 18.4C176.731 18.8 179.011 19 181.864 19Z" fill="#F2D43D"/>
<path d="M200.28 10.92C201.4 10.5467 202.414 10.36 203.32 10.36C204.707 10.36 205.787 10.8533 206.56 11.84C207.334 12.8 207.934 14.1733 208.36 15.96C208.494 16.4933 208.76 17.6667 209.16 19.48C209.587 21.2933 209.934 22.76 210.2 23.88C211.027 27.3733 211.774 30.08 212.44 32C213.134 33.92 214.227 35.4533 215.72 36.6C215.4 37.4 214.867 38.04 214.12 38.52C213.4 39 212.614 39.24 211.76 39.24C209.814 39.24 208.387 37.7733 207.48 34.84C207.054 33.48 206.667 32.1467 206.32 30.84C205.387 31.16 204.227 31.32 202.84 31.32C201.48 31.32 199.8 31.1733 197.8 30.88C196.974 34.1067 196.56 36.5333 196.56 38.16C196.56 38.5067 196.574 38.76 196.6 38.92C196.254 38.9733 195.667 39 194.84 39C194.014 39 193.28 38.7467 192.64 38.24C192.027 37.7067 191.72 36.96 191.72 36C191.72 34.6667 193 30.76 195.56 24.28C198.12 17.8 199.694 13.3467 200.28 10.92ZM198.72 27.52C199.787 27.6533 200.867 27.72 201.96 27.72C203.08 27.72 204.267 27.6 205.52 27.36C205.28 26.2667 204.467 22.08 203.08 14.8C201.427 19.0933 199.974 23.3333 198.72 27.52ZM218.17 19.12C219.023 18.88 219.876 18.76 220.73 18.76C221.61 18.76 222.356 19.0267 222.97 19.56C223.583 20.0933 223.89 20.7867 223.89 21.64C223.89 22.4667 223.743 23.92 223.45 26C223.183 28.0533 223.05 29.6533 223.05 30.8C223.05 33.7867 223.33 36.36 223.89 38.52C223.063 38.84 222.17 39 221.21 39C220.25 39 219.49 38.7867 218.93 38.36C218.37 37.9067 218.09 37.2667 218.09 36.44C218.09 35.5867 218.25 34.2 218.57 32.28C218.89 30.36 219.05 28.7733 219.05 27.52C219.05 24.1867 218.756 21.3867 218.17 19.12ZM218.69 10.08C219.623 9.65333 220.543 9.44 221.45 9.44C222.356 9.44 223.023 9.68 223.45 10.16C223.903 10.6133 224.13 11.2933 224.13 12.2C224.13 13.1067 223.823 13.9067 223.21 14.6C222.623 15.2933 221.85 15.64 220.89 15.64C218.916 15.64 217.93 14.6133 217.93 12.56C217.93 11.6533 218.183 10.8267 218.69 10.08Z" fill="#5741A6"/>
<path d="M19.7225 38H25C25.5304 38 26.0391 37.7893 26.4142 37.4142C26.7893 37.0391 27 36.5304 27 36V31.2938C26.9991 31.1298 26.958 30.9685 26.8801 30.8242C26.8022 30.6798 26.6901 30.5569 26.5535 30.4661C26.4169 30.3753 26.2601 30.3195 26.0969 30.3037C25.9336 30.2878 25.769 30.3123 25.6175 30.375C25.2631 30.5214 24.8834 30.5966 24.5 30.5963C22.8463 30.5963 21.5 29.2087 21.5 27.505C21.5 25.8012 22.8463 24.4137 24.5 24.4137C24.8834 24.4134 25.2631 24.4886 25.6175 24.635C25.7698 24.6981 25.9353 24.7225 26.0994 24.7061C26.2634 24.6897 26.4208 24.6331 26.5577 24.5411C26.6945 24.4492 26.8065 24.3249 26.8836 24.1792C26.9608 24.0336 27.0008 23.8711 27 23.7063V19C27 18.4696 26.7893 17.9609 26.4142 17.5858C26.0391 17.2107 25.5304 17 25 17H20.4725C20.4911 16.834 20.5003 16.6671 20.5 16.5C20.5 15.3065 20.0259 14.1619 19.182 13.318C18.3381 12.4741 17.1935 12 16 12C14.8065 12 13.6619 12.4741 12.818 13.318C11.9741 14.1619 11.5 15.3065 11.5 16.5C11.4997 16.6671 11.5089 16.834 11.5275 17H7C6.46957 17 5.96086 17.2107 5.58579 17.5858C5.21071 17.9609 5 18.4696 5 19V23.0275C4.83399 23.0089 4.66705 22.9997 4.5 23C3.30653 23 2.16193 23.4741 1.31802 24.318C0.474106 25.1619 0 26.3065 0 27.5C0 28.6935 0.474106 29.8381 1.31802 30.682C2.16193 31.5259 3.30653 32 4.5 32C4.66705 32.0003 4.83399 31.9911 5 31.9725V36C5 36.5304 5.21071 37.0391 5.58579 37.4142C5.96086 37.7893 6.46957 38 7 38H12.2775" fill="#F2CB05"/>
</svg>
